<svg width="24" height="24" viewBox="0 0 24 24" fill="none" xmlns="http://www.w3.org/2000/svg">
<path d="M13.1798 7.14001L13.4663 6.85422C13.6103 6.71024 13.7606 6.57551 13.9164 6.45013C14.7366 6.36459 15.4825 6.50351 16.57 6.86892M10.3894 9.93044L10.6759 9.64465C10.8199 9.50067 10.9702 9.36594 11.126 9.24056C11.9461 9.15502 12.692 9.29394 13.7796 9.65935M7.59896 12.7209L7.88546 12.4351C8.02943 12.2911 8.17974 12.1564 8.33556 12.031C9.15571 11.9455 9.90159 12.0844 10.9892 12.4498M4.80889 15.5116L5.09503 15.2255C5.2388 15.0817 5.38888 14.9472 5.54446 14.822C6.36462 14.7358 7.11068 14.8746 8.19875 15.2402M20.046 3.78253C21.0223 4.75884 21.0223 6.34175 20.046 7.31806L7.31806 20.046C6.34175 21.0223 4.75884 21.0223 3.78253 20.046C2.80622 19.0697 2.80622 17.4868 3.78253 16.5104L16.5104 3.78253C17.4868 2.80622 19.0697 2.80622 20.046 3.78253Z" stroke="black" stroke-width="1.00088" stroke-linejoin="round"/>
</svg>
