<svg width="24" height="24" viewBox="0 0 24 24" fill="none" xmlns="http://www.w3.org/2000/svg">
<path d="M19.2114 6.85353C19.2124 6.38114 18.8104 5.99901 18.3133 6L5.71343 6.02556C5.21639 6.03138 4.81672 6.41902 4.82053 6.89138M19.1795 17.2328C19.1203 17.6505 18.7427 17.9738 18.2865 17.9748L5.80599 18C5.36885 18.0009 5.0046 17.7053 4.92436 17.3118M2.99978 12.0183C2.99364 14.8527 3.99584 17.1483 5.23848 17.1458C6.48111 17.1433 7.49361 14.8436 7.50016 12.0092C7.50631 9.1749 6.5041 6.87925 5.26147 6.88175C4.01884 6.88427 3.00634 9.184 2.99978 12.0183ZM2.99978 12.0183C2.9957 13.9079 3.59673 15.4385 4.34231 15.437C4.49956 15.4366 4.65069 15.3682 4.79131 15.2427M2.99978 12.0183C3.00417 10.1288 3.61206 8.59577 4.35764 8.59425C5.10322 8.59275 5.7042 10.1233 5.70012 12.0129M5.70012 12.0129C5.69853 12.7215 5.29415 13.2967 4.7971 13.2977C4.30005 13.2987 3.89839 12.7251 3.89995 12.0165C3.90157 11.3079 4.3058 10.7327 4.80285 10.7317C5.2999 10.7307 5.70168 11.3043 5.70012 12.0129ZM21.0001 11.9819C20.9935 14.8163 19.981 17.116 18.7384 17.1185C17.4958 17.121 16.4935 14.8254 16.4997 11.991C16.5062 9.15668 17.5187 6.85696 18.7614 6.85443C20.004 6.85193 21.0062 9.14758 21.0001 11.9819ZM21.0001 11.9819C20.9957 13.8715 20.3878 15.4045 19.6422 15.406C19.485 15.4063 19.3341 15.3385 19.1941 15.2135M21.0001 11.9819C21.0042 10.0924 20.4031 8.56179 19.6575 8.56329C18.912 8.56481 18.3041 10.0978 18.2999 11.9874M18.2999 11.9874C18.2983 12.696 18.7 13.2696 19.197 13.2686C19.6941 13.2676 20.0983 12.6923 20.0999 11.9837C20.1015 11.2752 19.6998 10.7015 19.2028 10.7025C18.7057 10.7036 18.3015 11.2788 18.2999 11.9874Z" stroke="black" stroke-width="1.00088" stroke-linejoin="round"/>
</svg>
