<svg width="24" height="24" viewBox="0 0 24 24" fill="none" xmlns="http://www.w3.org/2000/svg">
<path d="M15.154 8.84605L18.3079 12L15.9425 14.3655L12.7885 11.2115L15.154 8.84605ZM18.3079 5.69209L20.6672 8.05134C21.1061 8.49025 21.1061 9.20186 20.6672 9.64077L18.3079 12L15.154 8.84605L18.3079 5.69209ZM12 5.69209L15.154 8.84605L12.7885 11.2115L9.63454 8.05756L12 5.69209ZM15.9487 3.33284L18.3079 5.69209L15.154 8.84605L12 5.69209L14.3593 3.33284C14.7982 2.89393 15.5098 2.89393 15.9487 3.33284ZM15.9362 14.3593C16.3752 14.7982 16.3752 15.5098 15.9362 15.9487L14.3655 17.5194L13.9705 16.3363L9.64077 20.6672C9.20186 21.1061 8.49025 21.1061 8.05134 20.6672L3.33284 15.9487C2.89393 15.5098 2.89393 14.7982 3.33284 14.3593L7.66306 10.0289L6.48058 9.63454L8.05134 8.06379C8.49025 7.62488 9.20186 7.62488 9.64077 8.06379L15.9362 14.3593ZM9.64077 8.06379L15.9362 14.3593C16.3752 14.7982 16.3752 15.5098 15.9362 15.9487L14.3655 17.5194L13.577 15.154L10.423 13.577L8.84605 10.423L6.48058 9.63454L8.05134 8.06379C8.49025 7.62488 9.20186 7.62488 9.64077 8.06379Z" stroke="black" stroke-linejoin="round"/>
</svg>
