<svg width="24" height="24" viewBox="0 0 24 24" fill="none" xmlns="http://www.w3.org/2000/svg">
<path d="M10.0168 5L17.659 11.124C19.1389 12.3099 20.0001 14.1036 20.0001 16C20.0001 17.6569 18.657 19 17.0001 19H7.16712C5.41797 19 4 17.582 4 15.8329C4 14.946 4.37184 14.0998 5.02508 13.5L8.68617 10.1384C10.1032 8.83728 10.6242 6.82537 10.0168 5ZM10.0168 5L14.2087 10.5986C15.3759 12.1575 16.0068 14.0525 16.0068 16C16.0068 17.6569 14.6636 19 13.0068 19H11.5143C9.77541 19 8.36579 17.5904 8.36579 15.8515C8.36579 15.4851 8.42975 15.1216 8.55478 14.7772L9.93617 10.972C10.6349 9.04721 10.6633 6.94291 10.0168 5Z" stroke="black" stroke-linejoin="round"/>
</svg>
