<svg width="24" height="24" viewBox="0 0 24 24" fill="none" xmlns="http://www.w3.org/2000/svg">
<path d="M12.0001 3.61066C13.7456 5.02291 14.4558 7.24052 14.0286 9.29728C15.4409 8.48323 17.1926 8.28245 18.84 8.89664C19.2482 9.04882 19.6375 9.24753 20.0002 9.48884L19.984 9.53225C19.2095 11.6095 17.3467 12.9639 15.2836 13.1898C16.5053 14.297 17.2407 15.9219 17.1573 17.698C17.1377 18.1137 17.0729 18.526 16.964 18.9276L16.9443 19C14.7241 18.8957 12.8589 17.5395 11.999 15.6458C11.3194 17.1455 9.99948 18.3418 8.28542 18.8067C7.8838 18.9157 7.47149 18.9805 7.0558 19L7.03618 18.9276C6.45374 16.7804 7.1742 14.587 8.71584 13.1878C7.10333 13.0123 5.57735 12.1487 4.60836 10.6923C4.36707 10.3297 4.16836 9.9404 4.01618 9.53225L4 9.48884C5.8529 8.25604 8.16667 8.25653 9.97316 9.29572C9.63111 7.65332 10.0026 5.87656 11.1402 4.47058C11.3958 4.15456 11.6841 3.86634 12.0001 3.61066ZM18.4304 3.20852C18.4323 3.21035 18.4341 3.21219 18.436 3.21404L19.1604 3.9468C19.8457 4.63996 19.8457 5.75552 19.1603 6.44864L17.0886 8.54249C17.6725 8.56622 18.2626 8.68138 18.84 8.89664C19.2482 9.04882 19.6375 9.24753 20.0002 9.48884L19.984 9.53225C19.2095 11.6095 17.3467 12.9639 15.2836 13.1898C16.5053 14.297 17.2407 15.9219 17.1573 17.698C17.1377 18.1137 17.0729 18.526 16.964 18.9276L16.9443 19C14.7241 18.8957 12.8589 17.5395 11.999 15.6458C11.3194 17.1455 9.99948 18.3418 8.28542 18.8067C7.8838 18.9157 7.47149 18.9805 7.0558 19L7.03618 18.9276C6.45374 16.7804 7.1742 14.587 8.71584 13.1878C7.10333 13.0123 5.57735 12.1487 4.60836 10.6923C4.36707 10.3297 4.16836 9.9404 4.01618 9.53225L4 9.48884C4.89892 8.89076 5.9063 8.58295 6.91162 8.54318L4.83968 6.4485C4.15437 5.75543 4.15428 4.63999 4.83946 3.9468L5.5637 3.2141C5.84355 2.93099 6.29991 2.92834 6.58302 3.20818L6.58582 3.21097L6.60621 3.23155C6.85306 3.48097 6.87792 3.86736 6.68066 4.14436L6.60668 4.2323C6.33262 4.50972 6.33272 4.95599 6.60691 5.23329L9.8662 8.53068C9.76342 7.11588 10.1775 5.66045 11.1402 4.47058C11.3958 4.15456 11.6841 3.86634 12.0001 3.61066C13.5297 4.84824 14.2643 6.70429 14.1351 8.52859L17.3931 5.23343C17.6399 4.98381 17.6646 4.59728 17.4672 4.32025L17.3932 4.2323C17.119 3.95494 17.1192 3.50859 17.3935 3.23141L17.411 3.21377C17.6911 2.93081 18.1475 2.92846 18.4304 3.20852ZM10.363 13.3148C10.1279 13.2893 9.95796 13.078 9.98347 12.8428C9.99363 12.7492 10.0344 12.6615 10.0995 12.5933L10.1379 12.5531C10.5284 12.144 10.7052 11.5758 10.6157 11.0174L10.6101 10.9826C10.5716 10.7424 10.7351 10.5165 10.9753 10.478C11.0669 10.4633 11.1607 10.4779 11.2435 10.5197C11.7236 10.762 12.2938 10.7442 12.7577 10.4723L12.7886 10.4542C12.9881 10.3373 13.2446 10.4043 13.3615 10.6037C13.4113 10.6887 13.4295 10.7885 13.413 10.8856L13.4033 10.9425C13.3122 11.4781 13.49 12.0243 13.8789 12.4035C14.0583 12.5784 14.0619 12.8656 13.887 13.0449C13.8224 13.1112 13.7391 13.1561 13.6482 13.1736L13.6356 13.1761C13.0922 13.2809 12.6314 13.6387 12.3951 14.1391L12.3654 14.202C12.2664 14.4117 12.0162 14.5014 11.8066 14.4024C11.7193 14.3612 11.649 14.2912 11.6073 14.2042L11.601 14.1912C11.3678 13.7045 10.8995 13.373 10.363 13.3148Z" stroke="black" stroke-linejoin="round"/>
</svg>
