<svg width="24" height="24" viewBox="0 0 24 24" fill="none" xmlns="http://www.w3.org/2000/svg">
<path d="M15.2109 8.78899L3.46533 20.5347M8.90751 15.0925L9.10985 14.9292C9.30614 14.7589 9.48395 14.5681 9.64015 14.3598C10.8541 12.7413 10.5261 10.4451 8.90751 9.23119L8.70517 9.39448C8.50888 9.56474 8.33107 9.75557 8.17487 9.96383C6.96095 11.5824 7.28896 13.8786 8.90751 15.0925ZM8.90751 15.0925L9.07081 15.2948C9.24107 15.4911 9.43191 15.6689 9.64019 15.8252C11.2587 17.039 13.5549 16.711 14.7687 15.0925L14.6055 14.8901C14.4352 14.6938 14.2444 14.516 14.0361 14.3598C12.4175 13.1459 10.1214 13.4739 8.90751 15.0925ZM11.8381 12.1618L12.0405 11.9985C12.2368 11.8283 12.4146 11.6375 12.5708 11.4292C13.7847 9.81064 13.4567 7.51447 11.8381 6.30055L11.6358 6.46384C11.4395 6.6341 11.2617 6.82492 11.1055 7.03319C9.89157 8.65174 10.2196 10.9479 11.8381 12.1618ZM11.8381 12.1618L12.0014 12.3642C12.1717 12.5605 12.3625 12.7383 12.5708 12.8945C14.1893 14.1084 16.4855 13.7804 17.6994 12.1618L17.5361 11.9595C17.3658 11.7632 17.175 11.5854 16.9667 11.4292C15.3482 10.2153 13.052 10.5433 11.8381 12.1618ZM14.7687 9.23119L14.9711 9.0679C15.1674 8.89764 15.3452 8.70682 15.5014 8.49855C16.7153 6.88 16.3873 4.58383 14.7687 3.36991L14.5664 3.5332C14.3701 3.70346 14.1923 3.89428 14.0361 4.10255C12.8222 5.7211 13.1502 8.01727 14.7687 9.23119ZM14.7687 9.23119L14.932 9.43354C15.1023 9.62984 15.2931 9.80766 15.5014 9.96387C17.12 11.1778 19.4161 10.8497 20.63 9.23119L20.4667 9.02885C20.2964 8.83254 20.1056 8.65473 19.8973 8.49852C18.2788 7.28463 15.9826 7.61266 14.7687 9.23119ZM5.90751 18.0925L6.10985 17.9292C6.30614 17.7589 6.48395 17.5681 6.64015 17.3598C7.85408 15.7413 7.52606 13.4451 5.90751 12.2312L5.70517 12.3945C5.50888 12.5647 5.33107 12.7556 5.17487 12.9638C3.96095 14.5824 4.28896 16.8786 5.90751 18.0925ZM5.90751 18.0925L6.07081 18.2948C6.24107 18.4911 6.43191 18.6689 6.64019 18.8252C8.25872 20.039 10.5549 19.711 11.7687 18.0925L11.6055 17.8901C11.4352 17.6938 11.2444 17.516 11.0361 17.3598C9.41754 16.1459 7.1214 16.4739 5.90751 18.0925ZM17.6292 7.40757C17.3715 7.44439 17.1108 7.45359 16.8516 7.43518L16.5931 7.40753C16.3069 5.40469 17.6986 3.54913 19.7014 3.26301C20.0451 3.21392 20.3939 3.21392 20.7376 3.26301C21.0237 5.26589 19.632 7.12145 17.6292 7.40757Z" stroke="black"/>
</svg>
